<svg width="813" height="153" viewBox="0 0 813 153" fill="none" xmlns="http://www.w3.org/2000/svg">
<path d="M813 -52H0V209H813V-52Z" fill="white"/>
<path d="M185.158 81.1974V79.741C183.504 79.6438 182.25 79.4498 181.399 79.1585C180.547 78.8673 179.975 78.2844 179.683 77.4106C179.391 76.5368 179.245 75.2257 179.245 73.4782V37.3573C179.245 35.5609 179.391 34.2378 179.683 33.3882C179.975 32.5386 180.547 31.9561 181.399 31.6406C182.25 31.3248 183.504 31.1428 185.158 31.0944V29.6377C184.039 29.6865 182.64 29.735 180.961 29.7834C179.282 29.8322 177.59 29.8564 175.887 29.8564C173.989 29.8564 172.212 29.8322 170.557 29.7834C168.902 29.735 167.564 29.6865 166.542 29.6377V31.0944C168.197 31.1428 169.45 31.3248 170.302 31.6406C171.153 31.9561 171.726 32.5386 172.018 33.3882C172.31 34.2378 172.456 35.5609 172.456 37.3573V73.4782C172.456 75.2257 172.31 76.5368 172.018 77.4106C171.726 78.2844 171.153 78.8673 170.302 79.1585C169.45 79.4498 168.197 79.6438 166.542 79.741V81.1974C167.564 81.1005 168.902 81.0396 170.557 81.0154C172.212 80.9912 173.989 80.9791 175.887 80.9791C177.59 80.9791 179.282 80.9912 180.961 81.0154C182.64 81.0396 184.039 81.1005 185.158 81.1974ZM204.475 82.2171C207.443 82.2171 209.646 81.2461 211.081 79.3042C212.517 77.3622 213.479 74.9833 213.965 72.1671L212.505 71.8032C211.726 74.619 210.802 76.6215 209.731 77.8111C208.66 79.0008 207.395 79.5954 205.935 79.5954C204.475 79.5954 203.331 79.1343 202.504 78.2117C201.676 77.2892 201.262 75.6872 201.262 73.4052V45.2221H212.067V43.7658H201.262V31.6039C200.338 31.944 199.316 32.1868 198.196 32.3325C197.077 32.4781 195.909 32.5749 194.692 32.6237V43.7658H187.683V45.2221H194.692V69.6184C194.692 72.1917 194.899 74.2547 195.312 75.8086C195.726 77.3622 196.468 78.697 197.539 79.8137C198.367 80.5906 199.316 81.1852 200.387 81.5979C201.457 82.0106 202.82 82.2171 204.475 82.2171ZM242.918 81.7072C244.475 81.7072 245.717 81.4523 246.641 80.9428C247.566 80.4329 248.54 79.7895 249.562 79.0129L248.759 77.7748C248.272 78.2117 247.773 78.576 247.262 78.8673C246.751 79.1585 246.155 79.3042 245.474 79.3042C244.646 79.3042 244.062 79.025 243.721 78.4667C243.381 77.9084 243.21 77.0467 243.21 75.8813V55.636C243.21 53.3059 243.016 51.303 242.626 49.6281C242.237 47.9531 241.409 46.5331 240.144 45.3677C239.219 44.4939 238.051 43.8263 236.64 43.3652C235.228 42.9041 233.525 42.6734 231.529 42.6734C229.291 42.6734 227.283 42.9525 225.506 43.5108C223.73 44.0691 222.282 44.7368 221.163 45.5137C220.189 46.1931 219.386 46.9216 218.754 47.6982C218.121 48.4751 217.805 49.4945 217.805 50.7568C217.805 51.8734 218.133 52.8811 218.79 53.7791C219.447 54.6775 220.481 55.1265 221.893 55.1265C223.11 55.1265 224.107 54.7743 224.886 54.0704C225.665 53.3664 226.054 52.4075 226.054 51.1937C226.054 49.9802 225.714 48.985 225.032 48.2081C224.351 47.4311 223.548 46.9458 222.623 46.7514C223.45 45.6836 224.557 44.9796 225.944 44.6396C227.332 44.2999 228.634 44.13 229.85 44.13C231.116 44.13 232.26 44.312 233.282 44.6763C234.303 45.0401 235.119 45.7562 235.727 46.8244C236.336 47.8926 236.64 49.4461 236.64 51.4853V56.0003C236.64 57.1169 236.141 58.0395 235.143 58.7676C234.145 59.4958 232.868 60.1513 231.31 60.7338C229.753 61.3163 228.11 61.9113 226.383 62.5181C224.655 63.1248 223.012 63.8533 221.455 64.7029C219.897 65.5525 218.62 66.6449 217.622 67.9798C216.624 69.315 216.126 71.0021 216.126 73.0413C216.126 75.663 216.843 77.7627 218.279 79.3405C219.715 80.9182 222.014 81.7072 225.178 81.7072C227.319 81.7072 229.376 81.2704 231.347 80.3966C233.318 79.5224 235.082 77.799 236.64 75.2257C236.64 76.9253 237.053 78.4304 237.881 79.741C238.708 81.0517 240.387 81.7072 242.918 81.7072ZM228.39 78.7943C226.735 78.7943 225.348 78.2481 224.229 77.1556C223.11 76.0632 222.55 74.4008 222.55 72.1671C222.55 69.7882 223.134 67.9556 224.302 66.6691C225.47 65.3826 226.869 64.3628 228.5 63.6105C230.13 62.8577 231.712 62.1659 233.245 61.535C234.778 60.9036 235.91 60.0541 236.64 58.9862V73.2595C235.423 75.2503 234.109 76.6703 232.698 77.5199C231.286 78.3695 229.85 78.7943 228.39 78.7943ZM268.951 81.1974V79.668C266.955 79.668 265.532 79.3041 264.68 78.576C263.829 77.8475 263.403 76.4638 263.403 74.425V24.103C262.332 24.4431 261.151 24.698 259.862 24.8679C258.572 25.0377 257.221 25.1228 255.81 25.1228C254.35 25.1228 252.841 25.0498 251.284 24.9042V26.4335C253.425 26.4335 254.885 26.9555 255.664 27.9991C256.443 29.0431 256.832 30.6575 256.832 32.842V74.425C256.832 76.4638 256.406 77.8475 255.554 78.576C254.703 79.3041 253.279 79.668 251.284 79.668V81.1974C252.111 81.1489 253.377 81.0884 255.08 81.0154C256.783 80.9428 258.463 80.9061 260.117 80.9061C261.821 80.9061 263.512 80.9428 265.191 81.0154C266.871 81.0884 268.124 81.1489 268.951 81.1974ZM281.04 34.8082C282.305 34.8082 283.4 34.3471 284.325 33.4245C285.25 32.5023 285.712 31.4099 285.712 30.1476C285.712 28.8854 285.25 27.793 284.325 26.8704C283.4 25.9482 282.305 25.4867 281.04 25.4867C279.774 25.4867 278.679 25.9482 277.755 26.8704C276.83 27.793 276.368 28.8854 276.368 30.1476C276.368 31.4099 276.83 32.5023 277.755 33.4245C278.679 34.3471 279.774 34.8082 281.04 34.8082ZM290.385 81.1974V79.668C288.389 79.668 286.965 79.3041 286.114 78.576C285.262 77.8475 284.836 76.4638 284.836 74.425V42.892C283.765 43.2317 282.585 43.4866 281.295 43.6565C280.006 43.8263 278.655 43.9114 277.243 43.9114C275.784 43.9114 274.275 43.8384 272.717 43.6928V45.2221C274.859 45.2221 276.319 45.7441 277.097 46.7881C277.876 47.8317 278.266 49.4461 278.266 51.631V74.425C278.266 76.4638 277.84 77.8475 276.988 78.576C276.136 79.3041 274.713 79.668 272.717 79.668V81.1974C273.545 81.1489 274.81 81.0884 276.513 81.0154C278.217 80.9428 279.896 80.9061 281.551 80.9061C283.254 80.9061 284.946 80.9428 286.625 81.0154C288.304 81.0884 289.557 81.1489 290.385 81.1974ZM321.674 81.7072C323.231 81.7072 324.472 81.4523 325.397 80.9428C326.322 80.4329 327.295 79.7895 328.317 79.0129L327.514 77.7748C327.027 78.2117 326.528 78.576 326.017 78.8673C325.506 79.1585 324.91 79.3042 324.229 79.3042C323.401 79.3042 322.817 79.025 322.476 78.4667C322.136 77.9084 321.966 77.0467 321.966 75.8813V55.636C321.966 53.3059 321.771 51.303 321.381 49.6281C320.992 47.9531 320.165 46.5331 318.899 45.3677C317.975 44.4939 316.807 43.8263 315.395 43.3652C313.984 42.9041 312.28 42.6734 310.285 42.6734C308.046 42.6734 306.038 42.9525 304.262 43.5108C302.486 44.0691 301.037 44.7368 299.918 45.5137C298.945 46.1931 298.142 46.9216 297.509 47.6982C296.876 48.4751 296.56 49.4945 296.56 50.7568C296.56 51.8734 296.889 52.8811 297.545 53.7791C298.202 54.6775 299.237 55.1265 300.648 55.1265C301.865 55.1265 302.862 54.7743 303.641 54.0704C304.42 53.3664 304.809 52.4075 304.809 51.1937C304.809 49.9802 304.469 48.985 303.787 48.2081C303.106 47.4311 302.303 46.9458 301.378 46.7514C302.206 45.6836 303.313 44.9796 304.7 44.6396C306.087 44.2999 307.389 44.13 308.606 44.13C309.871 44.13 311.015 44.312 312.037 44.6763C313.059 45.0401 313.874 45.7562 314.483 46.8244C315.091 47.8926 315.395 49.4461 315.395 51.4853V56.0003C315.395 57.1169 314.896 58.0395 313.899 58.7676C312.901 59.4958 311.623 60.1513 310.066 60.7338C308.508 61.3163 306.866 61.9113 305.138 62.5181C303.41 63.1248 301.768 63.8533 300.21 64.7029C298.653 65.5525 297.375 66.6449 296.377 67.9798C295.38 69.315 294.881 71.0021 294.881 73.0413C294.881 75.663 295.599 77.7627 297.035 79.3405C298.47 80.9182 300.77 81.7072 303.933 81.7072C306.075 81.7072 308.131 81.2704 310.102 80.3966C312.074 79.5224 313.838 77.799 315.395 75.2257C315.395 76.9253 315.809 78.4304 316.636 79.741C317.463 81.0517 319.143 81.7072 321.674 81.7072ZM307.145 78.7943C305.491 78.7943 304.104 78.2481 302.984 77.1556C301.865 76.0632 301.305 74.4008 301.305 72.1671C301.305 69.7882 301.889 67.9556 303.057 66.6691C304.225 65.3826 305.625 64.3628 307.255 63.6105C308.886 62.8577 310.467 62.1659 312 61.535C313.533 60.9036 314.665 60.0541 315.395 58.9862V73.2595C314.178 75.2503 312.864 76.6703 311.453 77.5199C310.041 78.3695 308.606 78.7943 307.145 78.7943ZM346.1 82.2171C348.728 82.2171 350.857 81.5495 352.488 80.2143C353.792 79.1464 354.809 77.6822 355.537 75.8215L355.588 75.677L355.591 81.9259C356.798 81.6149 358.09 81.3819 359.469 81.2265L360.519 81.1247C362.295 80.9791 364.205 80.9061 366.25 80.9061C367.758 80.9061 369.267 80.9791 370.776 81.1247V79.5954C369.024 79.5954 367.807 79.0734 367.125 78.0298C366.444 76.9858 366.104 75.3714 366.104 73.1869V24.176C364.595 24.5157 362.94 24.7707 361.139 24.9405C359.338 25.1107 357.44 25.1954 355.445 25.1954C353.985 25.1954 352.476 25.1228 350.919 24.9772V26.5065C352.719 26.5065 353.948 27.0281 354.605 28.0721C355.262 29.1157 355.591 30.7302 355.591 32.915L355.588 45.2531L355.536 45.1952C354.985 44.6486 354.365 44.1955 353.676 43.8358L353.145 43.5838C351.515 42.8799 349.629 42.5277 347.487 42.5277C344.372 42.5277 341.586 43.2559 339.128 44.7126C336.67 46.1689 334.736 48.3416 333.324 51.2304C331.913 54.1188 331.207 57.7724 331.207 62.1905C331.207 66.851 331.84 70.6503 333.105 73.5875C334.371 76.5247 336.135 78.697 338.398 80.1053C340.661 81.5132 343.229 82.2171 346.1 82.2171ZM349.093 79.0855C347.731 79.0855 346.526 78.5514 345.48 77.4836C344.433 76.4154 343.63 74.6553 343.07 72.2038C342.511 69.7519 342.231 66.4626 342.231 62.3361C342.182 56.3157 342.888 51.8613 344.348 48.9725C345.808 46.0841 347.779 44.6396 350.261 44.6396C351.429 44.6396 352.537 44.8945 353.583 45.4044C354.331 45.7683 354.973 46.2998 355.509 46.9984L355.588 47.1157V72.6713L355.532 73.0878C355.294 74.5218 354.757 75.73 353.923 76.7123L353.547 77.1193C352.232 78.4304 350.748 79.0855 349.093 79.0855ZM392.72 82.2171C396.273 82.2171 399.39 81.5616 402.063 80.2509C404.74 78.9399 406.834 76.8402 408.343 73.9514C409.852 71.0626 410.607 67.2153 410.607 62.4087C410.607 57.6026 409.852 53.7428 408.343 50.8298C406.834 47.9168 404.74 45.805 402.063 44.4939C399.39 43.1833 396.273 42.5277 392.72 42.5277C389.265 42.5277 386.186 43.1833 383.486 44.4939C380.783 45.805 378.667 47.9168 377.134 50.8298C375.601 53.7428 374.834 57.6026 374.834 62.4087C374.834 67.2153 375.601 71.0626 377.134 73.9514C378.667 76.8402 380.783 78.9399 383.486 80.2509C386.186 81.5616 389.265 82.2171 392.72 82.2171ZM392.72 80.7605C390.775 80.7605 389.144 79.3284 387.828 76.4638C386.516 73.5996 385.856 68.9145 385.856 62.4087C385.856 55.903 386.516 51.2062 387.828 48.3174C389.144 45.4286 390.775 43.9844 392.72 43.9844C394.714 43.9844 396.36 45.4286 397.649 48.3174C398.939 51.2062 399.583 55.903 399.583 62.4087C399.583 68.9145 398.939 73.5996 397.649 76.4638C396.36 79.3284 394.714 80.7605 392.72 80.7605ZM478.544 81.1974V79.668C476.841 79.668 475.635 79.3041 474.93 78.576C474.225 77.8475 473.872 76.4638 473.872 74.425V54.8352C473.872 52.4075 473.701 50.4534 473.36 48.9725C473.019 47.492 472.461 46.2903 471.68 45.3677C470.903 44.4939 469.879 43.8021 468.616 43.2926C467.35 42.7827 465.696 42.5277 463.652 42.5277C461.169 42.5277 458.844 43.0376 456.679 44.057C454.514 45.0765 452.773 47.043 451.458 49.956L451.541 49.7767L451.507 49.5502L451.385 48.9725C451.044 47.492 450.487 46.2903 449.706 45.3677C448.928 44.4939 447.904 43.8021 446.642 43.2926C445.375 42.7827 443.722 42.5277 441.678 42.5277C439.293 42.5277 437.101 43.0497 435.106 44.0934C433.112 45.1374 431.531 46.8728 430.359 49.3005V42.7464C428.854 43.0861 427.208 43.341 425.433 43.5108C423.655 43.6807 421.747 43.7658 419.703 43.7658C418.244 43.7658 416.734 43.6928 415.176 43.5471V45.0765C416.977 45.0765 418.206 45.5985 418.862 46.6425C419.518 47.6861 419.848 49.3005 419.848 51.4853V74.425C419.848 76.4638 419.495 77.8475 418.79 78.576C418.084 79.3041 416.878 79.668 415.176 79.668V81.1974C416.15 81.1489 417.61 81.0884 419.556 81.0154C421.505 80.9428 423.401 80.9061 425.251 80.9061C426.954 80.9061 428.622 80.9428 430.253 81.0154C431.883 81.0884 433.085 81.1489 433.867 81.1974V79.668C432.6 79.668 431.698 79.3041 431.163 78.576C430.628 77.8475 430.359 76.4638 430.359 74.425V54.1797C430.359 52.5774 430.689 51.1332 431.345 49.8467C432.005 48.5599 432.865 47.5526 433.939 46.8244C435.008 46.0963 436.176 45.732 437.442 45.732C438.561 45.732 439.403 45.9869 439.96 46.4968C440.521 47.0063 440.897 47.7103 441.094 48.6087C441.287 49.5066 441.386 50.5627 441.386 51.7766V74.425C441.386 76.4638 441.128 77.8475 440.616 78.576C440.108 79.3041 439.194 79.668 437.878 79.668V81.1974C438.758 81.1489 440.047 81.0884 441.75 81.0154C443.453 80.9428 445.182 80.9061 446.934 80.9061C448.636 80.9061 450.377 80.9428 452.151 81.0154C453.93 81.0884 455.257 81.1489 456.133 81.1974V79.668C454.575 79.668 453.479 79.3041 452.845 78.576C452.212 77.8475 451.897 76.4638 451.897 74.425V54.8352C451.897 54.5315 451.894 54.2357 451.89 53.9471L451.875 53.5298L451.935 52.9866C452.159 51.393 452.72 49.9833 453.611 48.7581L454.013 48.2444C455.424 46.5695 457.081 45.732 458.977 45.732C460.244 45.732 461.18 45.9869 461.791 46.4968C462.397 47.0063 462.811 47.7103 463.031 48.6087C463.251 49.5066 463.361 50.5627 463.361 51.7766V74.425C463.361 76.4638 463.103 77.8475 462.591 78.576C462.083 79.3041 461.169 79.668 459.853 79.668V81.1974C460.729 81.1489 462.022 81.0884 463.725 81.0154C465.427 80.9428 467.156 80.9061 468.908 80.9061C470.709 80.9061 472.533 80.9428 474.384 81.0154C476.231 81.0884 477.618 81.1489 478.544 81.1974ZM508.955 81.7072C510.612 81.7072 512.11 81.4765 513.445 81.0154C514.784 80.5543 515.967 79.8867 516.987 79.0129L516.259 77.7748C515.868 78.1145 515.455 78.4058 515.015 78.6486C514.579 78.8915 514.116 79.0129 513.631 79.0129C513.047 79.0129 512.63 78.77 512.387 78.2844C512.144 77.799 512.023 76.9737 512.023 75.8086V56.0003C512.023 53.5242 511.852 51.4728 511.511 49.8467C511.17 48.2202 510.442 46.8486 509.323 45.732C508.106 44.5181 506.597 43.6807 504.795 43.2196C502.994 42.7585 500.977 42.5277 498.736 42.5277C496.499 42.5277 494.417 42.7464 492.494 43.1833C490.572 43.6202 488.93 44.2269 487.565 45.0038C486.302 45.8292 485.316 46.703 484.611 47.6256C483.905 48.5478 483.553 49.7132 483.553 51.1211C483.553 52.6746 484 53.9977 484.903 55.0898C485.801 56.1822 487.129 56.7284 488.881 56.7284C490.439 56.7284 491.789 56.2431 492.934 55.2721C494.076 54.3011 494.648 52.9901 494.648 51.3393C494.648 50.0771 494.273 48.9483 493.518 47.9531C492.764 46.9579 491.702 46.2177 490.34 45.732C490.974 45.101 491.778 44.6517 492.748 44.3846C493.723 44.1176 494.697 43.9844 495.672 43.9844C497.033 43.9844 498.141 44.2511 498.99 44.7852C499.843 45.3193 500.476 46.0841 500.89 47.0793C501.303 48.0746 501.512 49.2033 501.512 50.4655V56.1459C501.512 57.2625 501.038 58.1851 500.086 58.9132C499.138 59.6414 497.898 60.2848 496.362 60.8431C494.83 61.4014 493.226 61.9598 491.546 62.5181C489.866 63.0764 488.274 63.7803 486.765 64.6299C485.255 65.4795 484.027 66.5598 483.075 67.8705C482.127 69.1815 481.653 70.8807 481.653 72.9683C481.653 75.396 482.385 77.4594 483.845 79.1585C485.305 80.8577 487.663 81.7072 490.924 81.7072C493.31 81.7072 495.391 81.2219 497.166 80.2509C498.944 79.2799 500.438 77.7991 501.656 75.8086C501.705 77.3622 502.206 78.7337 503.154 79.923C504.102 81.1126 506.035 81.7072 508.955 81.7072ZM496.548 77.0467C495.281 77.0467 494.208 76.5973 493.332 75.6993C492.456 74.801 492.02 73.3083 492.02 71.2207C492.02 69.2787 492.384 67.7248 493.116 66.5598C493.844 65.3947 494.758 64.4359 495.854 63.6831C496.946 62.9308 498.019 62.2268 499.066 61.5713C500.112 60.9158 500.928 60.1029 501.512 59.1319V74.0607C500.73 75.1773 499.942 75.9543 499.138 76.3912C498.334 76.828 497.469 77.0467 496.548 77.0467ZM561.273 81.1974V79.668C559.567 79.668 558.365 79.3041 557.659 78.576C556.95 77.8475 556.598 76.4638 556.598 74.425V54.8352C556.598 52.3591 556.416 50.3929 556.052 48.9362C555.688 47.4799 555.115 46.2903 554.338 45.3677C553.606 44.4939 552.597 43.8021 551.308 43.2926C550.015 42.7827 548.35 42.5277 546.306 42.5277C543.728 42.5277 541.388 43.0376 539.299 44.057C537.205 45.0765 535.548 46.8244 534.331 49.3005V42.7464C532.826 43.0861 531.18 43.341 529.405 43.5108C527.627 43.6807 525.72 43.7658 523.676 43.7658C522.212 43.7658 520.707 43.6928 519.148 43.5471V45.0765C520.949 45.0765 522.178 45.5985 522.834 46.6425C523.49 47.6861 523.82 49.3005 523.82 51.4853V74.425C523.82 76.4638 523.467 77.8475 522.762 78.576C522.057 79.3041 520.851 79.668 519.148 79.668V81.1974C520.123 81.1489 521.583 81.0884 523.528 81.0154C525.473 80.9428 527.373 80.9061 529.223 80.9061C531.025 80.9061 532.761 80.9428 534.441 81.0154C536.121 81.0884 537.399 81.1489 538.275 81.1974V79.668C536.864 79.668 535.852 79.3041 535.245 78.576C534.638 77.8475 534.331 76.4638 534.331 74.425V54.1797C534.331 51.752 535.025 49.7374 536.413 48.1351C537.801 46.5331 539.515 45.732 541.559 45.732C542.825 45.732 543.773 45.9869 544.406 46.4968C545.04 47.0063 545.48 47.7103 545.722 48.6087C545.965 49.5066 546.086 50.5627 546.086 51.7766V74.425C546.086 76.4638 545.794 77.8475 545.21 78.576C544.626 79.3041 543.603 79.668 542.143 79.668V81.1974C543.068 81.1489 544.418 81.0884 546.196 81.0154C547.971 80.9428 549.783 80.9061 551.634 80.9061C553.435 80.9061 555.259 80.9428 557.11 81.0154C558.96 81.0884 560.348 81.1489 561.273 81.1974ZM573.506 35.9736C575.55 35.9736 577.169 35.4758 578.36 34.4806C579.554 33.4854 580.15 32.1138 580.15 30.3659C580.15 28.6183 579.554 27.2468 578.36 26.2515C577.169 25.2563 575.55 24.7586 573.506 24.7586C571.462 24.7586 569.843 25.2563 568.652 26.2515C567.458 27.2468 566.863 28.6183 566.863 30.3659C566.863 32.1138 567.458 33.4854 568.652 34.4806C569.843 35.4758 571.462 35.9736 573.506 35.9736ZM583.873 81.1974V79.668C582.171 79.668 580.965 79.3041 580.26 78.576C579.554 77.8475 579.202 76.4638 579.202 74.425V42.7464C577.692 43.0861 576.05 43.341 574.272 43.5108C572.497 43.6807 570.586 43.7658 568.542 43.7658C567.082 43.7658 565.573 43.6928 564.015 43.5471V45.0765C565.816 45.0765 567.045 45.5985 567.701 46.6425C568.36 47.6861 568.686 49.3005 568.686 51.4853V74.425C568.686 76.4638 568.334 77.8475 567.629 78.576C566.923 79.3041 565.717 79.668 564.015 79.668V81.1974C564.989 81.1489 566.449 81.0884 568.394 81.0154C570.344 80.9428 572.266 80.9061 574.162 80.9061C576.062 80.9061 577.935 80.9428 579.786 81.0154C581.632 81.0884 582.997 81.1489 583.873 81.1974Z" fill="black"/>
<path d="M174.251 131.475V123.644H180.181C185.145 123.644 187.627 121 187.627 115.712C187.627 113.18 187.021 111.298 185.808 110.065C184.595 108.832 182.719 108.216 180.181 108.216H171.656V131.475H174.251ZM180.147 121.359H174.251V110.502H180.147C181.832 110.502 183.056 110.922 183.82 111.762C184.583 112.603 184.965 113.919 184.965 115.712C184.965 119.476 183.359 121.359 180.147 121.359ZM194.231 131.475V108.216H191.637V131.475H194.231ZM200.431 131.475L202.116 125.493H212.089L213.774 131.475H216.335L209.933 108.216H204.273L197.871 131.475H200.431ZM211.517 123.173H202.689L206.227 110.435H207.979L211.517 123.173ZM222.602 131.475V110.502H223.242L232.306 131.475H237.057V108.216H234.497V129.19H233.789L224.86 108.216H220.008V131.475H222.602ZM251.057 131.811C254.55 131.811 256.959 130.882 258.285 129.022C259.61 127.162 260.273 124.159 260.273 120.014C260.273 115.868 259.593 112.81 258.234 110.838C256.875 108.866 254.477 107.88 251.041 107.88C247.604 107.88 245.211 108.872 243.863 110.855C242.516 112.838 241.842 115.874 241.842 119.964C241.842 124.053 242.504 127.05 243.83 128.954C245.155 130.859 247.564 131.811 251.057 131.811ZM251.057 129.526C248.485 129.526 246.75 128.781 245.852 127.291C244.953 125.801 244.504 123.353 244.504 119.947C244.504 116.541 244.959 114.059 245.868 112.502C246.778 110.945 248.497 110.166 251.023 110.166C253.551 110.166 255.275 110.95 256.196 112.519C257.117 114.087 257.577 116.586 257.577 120.014C257.577 123.442 257.133 125.885 256.246 127.341C255.359 128.798 253.629 129.526 251.057 129.526ZM275.031 131.475V110.502H275.671L284.735 131.475H289.486V108.216H286.925V129.19H286.218L277.289 108.216H272.436V131.475H275.031ZM295.72 131.475L297.404 125.493H307.378L309.062 131.475H311.623L305.221 108.216H299.56L293.158 131.475H295.72ZM306.805 123.173H297.977L301.515 110.435H303.267L306.805 123.173ZM329.043 131.509V129.19H316.846V128.517L329.043 111.242V108.216H313.881V110.502H326.044V111.242L313.881 128.517V131.509H329.043ZM335.951 131.475V108.216H333.356V131.475H335.951ZM349.917 131.811C353.41 131.811 355.819 130.882 357.144 129.022C358.47 127.162 359.132 124.159 359.132 120.014C359.132 115.868 358.453 112.81 357.094 110.838C355.735 108.866 353.337 107.88 349.9 107.88C346.463 107.88 344.071 108.872 342.723 110.855C341.375 112.838 340.701 115.874 340.701 119.964C340.701 124.053 341.364 127.05 342.69 128.954C344.015 130.859 346.424 131.811 349.917 131.811ZM349.917 129.526C347.345 129.526 345.61 128.781 344.711 127.291C343.813 125.801 343.363 123.353 343.363 119.947C343.363 116.541 343.818 114.059 344.728 112.502C345.638 110.945 347.356 110.166 349.883 110.166C352.41 110.166 354.135 110.95 355.055 112.519C355.976 114.087 356.437 116.586 356.437 120.014C356.437 123.442 355.993 125.885 355.106 127.341C354.219 128.798 352.489 129.526 349.917 129.526ZM366.478 131.475V110.502H367.118L376.182 131.475H380.934V108.216H378.372V129.19H377.665L368.735 108.216H363.883V131.475H366.478ZM387.165 131.475L388.852 125.493H398.825L400.509 131.475H403.072L396.667 108.216H391.006L384.605 131.475H387.165ZM398.252 123.173H389.425L392.963 110.435H394.714L398.252 123.173ZM419.582 131.475V129.156H409.336V108.216H406.743V131.475H419.582ZM437.067 131.475V129.19H425.479V120.787H435.046V118.535H425.479V110.502H437.067V108.216H422.881V131.475H437.067ZM457.252 131.475C458.913 131.475 460.327 131.173 461.495 130.568C464.415 129.044 465.878 125.358 465.878 119.51C465.878 116.709 465.518 114.446 464.798 112.72C463.562 109.718 461.047 108.216 457.252 108.216H448.928V131.475H457.252ZM457.252 129.19H451.522V110.502H457.252C458.42 110.502 459.406 110.726 460.217 111.174C462.215 112.272 463.216 115.051 463.216 119.51C463.216 125.963 461.226 129.19 457.252 129.19ZM473.258 131.475V108.216H470.66V131.475H473.258ZM488.956 131.475V122.569H495.562L499.775 131.475H502.638L498.156 122.031C501.007 121.112 502.437 118.86 502.437 115.275C502.437 112.855 501.811 111.073 500.564 109.931C499.32 108.788 497.458 108.216 494.989 108.216H486.363V131.475H488.956ZM495.024 120.283H488.956V110.502H494.989C498.179 110.502 499.775 112.132 499.775 115.392C499.775 118.653 498.19 120.283 495.024 120.283ZM509.714 131.475V108.216H507.12V131.475H509.714ZM518.003 131.475V123.644H523.934C528.897 123.644 531.377 121 531.377 115.712C531.377 113.18 530.771 111.298 529.561 110.065C528.348 108.832 526.47 108.216 523.934 108.216H515.409V131.475H518.003ZM523.9 121.359H518.003V110.502H523.9C525.583 110.502 526.808 110.922 527.57 111.762C528.336 112.603 528.715 113.919 528.715 115.712C528.715 119.476 527.111 121.359 523.9 121.359ZM537.983 131.475V122.569H544.589L548.798 131.475H551.664L547.182 122.031C550.034 121.112 551.46 118.86 551.46 115.275C551.46 112.855 550.838 111.073 549.59 109.931C548.343 108.788 546.485 108.216 544.016 108.216H535.389V131.475H537.983ZM544.046 120.283H537.983V110.502H544.016C547.205 110.502 548.798 112.132 548.798 115.392C548.798 118.653 547.216 120.283 544.046 120.283ZM570.329 131.475V129.19H558.74V120.787H568.307V118.535H558.74V110.502H570.329V108.216H556.143V131.475H570.329ZM581.113 131.778C586.077 131.778 588.557 129.392 588.557 124.619C588.557 122.692 588.064 121.308 587.078 120.468C586.088 119.628 584.408 118.944 582.038 118.418C579.668 117.891 578.094 117.364 577.321 116.838C576.547 116.311 576.161 115.342 576.161 113.93C576.161 111.398 577.844 110.132 581.211 110.132C582.516 110.132 584.727 110.323 587.851 110.704L588.086 108.519L586.941 108.351C584.651 108.015 582.683 107.847 581.045 107.847C576.035 107.847 573.529 109.931 573.529 114.098C573.529 116.182 574.083 117.667 575.182 118.552C576.282 119.437 578.148 120.159 580.775 120.72C582.774 121.101 584.139 121.566 584.871 122.115C585.599 122.664 585.963 123.566 585.963 124.82C585.963 127.935 584.302 129.492 580.976 129.492C579.384 129.492 577.055 129.291 574.003 128.887L573.734 131.039L574.947 131.207C577.416 131.587 579.471 131.778 581.113 131.778ZM593.547 131.475L595.23 125.493H605.203L606.887 131.475H609.45L603.046 108.216H597.388L590.983 131.475H593.547ZM604.631 123.173H595.803L599.341 110.435H601.093L604.631 123.173ZM634.72 131.475V129.19H623.128V120.787H632.699V118.535H623.128V110.502H634.72V108.216H620.534V131.475H634.72ZM649.175 131.475V122.569H655.781L659.99 131.475H662.857L658.374 122.031C661.226 121.112 662.652 118.86 662.652 115.275C662.652 112.855 662.03 111.073 660.782 109.931C659.535 108.788 657.677 108.216 655.204 108.216H646.581V131.475H649.175ZM655.238 120.283H649.175V110.502H655.204C658.397 110.502 659.99 112.132 659.99 115.392C659.99 118.653 658.409 120.283 655.238 120.283ZM681.521 131.475V129.19H669.932V120.787H679.5V118.535H669.932V110.502H681.521V108.216H667.335V131.475H681.521ZM692.305 131.778C697.269 131.778 699.749 129.392 699.749 124.619C699.749 122.692 699.256 121.308 698.266 120.468C697.28 119.628 695.6 118.944 693.23 118.418C690.86 117.891 689.287 117.364 688.513 116.838C687.74 116.311 687.349 115.342 687.349 113.93C687.349 111.398 689.036 110.132 692.404 110.132C693.708 110.132 695.919 110.323 699.043 110.704L699.279 108.519L698.133 108.351C695.843 108.015 693.875 107.847 692.237 107.847C687.228 107.847 684.721 109.931 684.721 114.098C684.721 116.182 685.275 117.667 686.374 118.552C687.474 119.437 689.34 120.159 691.968 120.72C693.966 121.101 695.331 121.566 696.059 122.115C696.791 122.664 697.155 123.566 697.155 124.82C697.155 127.935 695.494 129.492 692.169 129.492C690.576 129.492 688.248 129.291 685.195 128.887L684.926 131.039L686.139 131.207C688.608 131.587 690.663 131.778 692.305 131.778ZM706.825 131.475V108.216H704.231V131.475H706.825ZM725.36 131.475V129.156H715.114V108.216H712.52V131.475H725.36ZM731.256 131.475V108.216H728.659V131.475H731.256ZM751.134 131.475V129.19H739.542V120.787H749.113V118.535H739.542V110.502H751.134V108.216H736.948V131.475H751.134ZM758.176 131.475V110.502H758.816L767.879 131.475H772.631V108.216H770.071V129.19H769.362L760.436 108.216H755.582V131.475H758.176ZM792.106 131.509V129.19H779.911V128.517L792.106 111.242V108.216H776.946V110.502H789.107V111.242L776.946 128.517V131.509H792.106ZM796.926 131.475L798.609 125.493H808.582L810.27 131.475H812.829L806.428 108.216H800.767L794.366 131.475H796.926ZM808.01 123.173H799.182L802.72 110.435H804.472L808.01 123.173Z" fill="black"/>
<path fill-rule="evenodd" clip-rule="evenodd" d="M134.549 26.8601C121.776 24.4041 109.003 21.9476 96.23 19.4912C96.23 30.3987 96.23 41.3051 96.23 52.2127C99.4607 52.471 102.69 52.7294 105.92 52.9877C105.92 67.7399 105.92 82.4917 105.92 97.2446C115.463 96.5085 125.007 95.772 134.549 95.0356C134.549 72.3104 134.549 49.5853 134.549 26.8601Z" fill="#D8242A"/>
<path fill-rule="evenodd" clip-rule="evenodd" d="M96.2299 52.2131C89.7813 51.6964 83.333 51.1809 76.8844 50.6653C76.8844 73.6613 76.8844 96.6557 76.8844 119.652C73.6555 120.111 70.4247 120.569 67.1943 121.027C67.1943 126.396 67.1943 131.763 67.1943 137.131C80.1026 134.647 93.0116 132.165 105.92 129.683C105.92 118.871 105.92 108.058 105.92 97.2451C102.69 97.4936 99.4603 97.7429 96.2299 97.9914C96.2299 82.7327 96.2299 67.4729 96.2299 52.2131Z" fill="#E6E6E0"/>
<path fill-rule="evenodd" clip-rule="evenodd" d="M96.23 52.2136C96.23 67.4734 96.23 82.7332 96.23 97.9919C99.4607 97.7438 102.69 97.4941 105.92 97.2456C105.92 82.4923 105.92 67.7405 105.92 52.9887C102.69 52.7303 99.4607 52.472 96.23 52.2136Z" fill="#932327"/>
<path fill-rule="evenodd" clip-rule="evenodd" d="M76.8843 50.6653C76.8843 45.4605 76.8843 40.2556 76.8843 35.0507C63.976 33.3697 51.0681 31.6884 38.1587 30.0059C38.1587 61.7227 38.1587 93.4368 38.1587 125.152C47.8373 123.777 57.5164 122.403 67.1939 121.027C67.1939 97.3147 67.1939 73.6023 67.1939 49.8903C70.4246 50.1486 73.655 50.407 76.8843 50.6653Z" fill="#198B53"/>
<mask id="mask0_422_189" style="mask-type:alpha" maskUnits="userSpaceOnUse" x="0" y="49" width="77" height="73">
<path d="M0 49.8911H76.8854V121.028H0V49.8911Z" fill="white"/>
</mask>
<g mask="url(#mask0_422_189)">
<path fill-rule="evenodd" clip-rule="evenodd" d="M76.8844 50.6662C73.6555 50.4078 70.4247 50.1495 67.1943 49.8911C67.1943 73.6035 67.1943 97.3159 67.1943 121.028C70.4247 120.57 73.6555 120.112 76.8844 119.653C76.8844 96.657 76.8844 73.6622 76.8844 50.6662Z" fill="#45AE59"/>
<path fill-rule="evenodd" clip-rule="evenodd" d="M9.34854 61.1225C6.20822 61.0079 3.06661 60.8929 -0.0737305 60.7768C-0.0737305 57.4893 -0.0737305 54.2004 -0.0737305 50.9114C3.06661 51.0952 6.20822 51.2772 9.34854 51.4606C9.34854 54.6823 9.34854 57.9024 9.34854 61.1225Z" fill="#198B53"/>
<path fill-rule="evenodd" clip-rule="evenodd" d="M20.684 72.7207C17.5437 72.6855 14.4033 72.6518 11.2617 72.617C11.2617 69.4094 11.2617 66.2029 11.2617 62.9963C14.4033 63.0985 17.5437 63.201 20.684 63.3031C20.684 66.4423 20.684 69.5815 20.684 72.7207Z" fill="#198B53"/>
<path fill-rule="evenodd" clip-rule="evenodd" d="M43.3568 72.9683C40.2152 72.9335 37.0735 72.8999 33.9331 72.8647C33.9331 69.822 33.9331 66.7777 33.9331 63.7346C37.0735 63.8367 40.2152 63.9393 43.3568 64.0418C43.3568 67.0172 43.3568 69.9929 43.3568 72.9683Z" fill="#198B53"/>
<path fill-rule="evenodd" clip-rule="evenodd" d="M9.4799 84.0666C6.33954 84.1128 3.19796 84.1589 0.0576172 84.2051C0.0576172 80.9176 0.0576172 77.6298 0.0576172 74.3423C3.19796 74.3646 6.33954 74.3858 9.4799 74.407C9.4799 77.6275 9.4799 80.8465 9.4799 84.0666Z" fill="#45AE59"/>
<path fill-rule="evenodd" clip-rule="evenodd" d="M32.0194 94.6269C28.8791 94.7544 25.7375 94.8815 22.5972 95.0089C22.5972 91.8834 22.5972 88.7582 22.5972 85.6326C25.7375 85.574 28.8791 85.5153 32.0194 85.4556C32.0194 88.5123 32.0194 91.5702 32.0194 94.6269Z" fill="#198B53"/>
<path fill-rule="evenodd" clip-rule="evenodd" d="M43.3568 104.77C40.2152 104.977 37.0735 105.186 33.9331 105.393C33.9331 102.348 33.9331 99.3056 33.9331 96.2636C37.0735 96.1225 40.2152 95.9829 43.3568 95.8445C43.3568 98.8187 43.3568 101.794 43.3568 104.77Z" fill="#45AE59"/>
<path fill-rule="evenodd" clip-rule="evenodd" d="M20.684 117.451C17.5437 117.74 14.4033 118.028 11.2617 118.315C11.2617 115.108 11.2617 111.902 11.2617 108.694C14.4033 108.475 17.5437 108.254 20.684 108.033C20.684 111.173 20.684 114.311 20.684 117.451Z" fill="#45AE59"/>
<path fill-rule="evenodd" clip-rule="evenodd" d="M43.0883 115.393C39.9466 115.681 36.8062 115.971 33.6646 116.258C33.6646 113.212 33.6646 110.167 33.6646 107.122C36.8062 106.902 39.9466 106.681 43.0883 106.46C43.0883 109.438 43.0883 112.416 43.0883 115.393Z" fill="#198B53"/>
</g>
</svg>
